<svg width="960" height="480" viewBox="0 0 960 480" fill="none" xmlns="http://www.w3.org/2000/svg">
<rect width="320" height="480" transform="translate(320)" fill="#142850" fill-opacity="0.6"/>
<path d="M429.46 222.926C429.46 218.197 430.253 214.507 431.838 211.856C433.451 209.177 436.211 207.838 440.12 207.838C444.029 207.838 446.776 209.177 448.361 211.856C449.974 214.507 450.78 218.197 450.78 222.926C450.78 227.709 449.974 231.454 448.361 234.16C446.776 236.839 444.029 238.178 440.12 238.178C436.211 238.178 433.451 236.839 431.838 234.16C430.253 231.454 429.46 227.709 429.46 222.926ZM446.188 222.926C446.188 220.712 446.038 218.84 445.737 217.309C445.464 215.778 444.89 214.535 444.015 213.578C443.14 212.594 441.842 212.102 440.12 212.102C438.398 212.102 437.1 212.594 436.225 213.578C435.35 214.535 434.763 215.778 434.462 217.309C434.189 218.84 434.052 220.712 434.052 222.926C434.052 225.222 434.189 227.149 434.462 228.707C434.735 230.265 435.309 231.522 436.184 232.479C437.086 233.436 438.398 233.914 440.12 233.914C441.842 233.914 443.14 233.436 444.015 232.479C444.917 231.522 445.505 230.265 445.778 228.707C446.051 227.149 446.188 225.222 446.188 222.926ZM455.726 222.926C455.726 218.197 456.518 214.507 458.104 211.856C459.716 209.177 462.477 207.838 466.386 207.838C470.294 207.838 473.041 209.177 474.627 211.856C476.239 214.507 477.046 218.197 477.046 222.926C477.046 227.709 476.239 231.454 474.627 234.16C473.041 236.839 470.294 238.178 466.386 238.178C462.477 238.178 459.716 236.839 458.104 234.16C456.518 231.454 455.726 227.709 455.726 222.926ZM472.454 222.926C472.454 220.712 472.303 218.84 472.003 217.309C471.729 215.778 471.155 214.535 470.281 213.578C469.406 212.594 468.108 212.102 466.386 212.102C464.664 212.102 463.365 212.594 462.491 213.578C461.616 214.535 461.028 215.778 460.728 217.309C460.454 218.84 460.318 220.712 460.318 222.926C460.318 225.222 460.454 227.149 460.728 228.707C461.001 230.265 461.575 231.522 462.45 232.479C463.352 233.436 464.664 233.914 466.386 233.914C468.108 233.914 469.406 233.436 470.281 232.479C471.183 231.522 471.77 230.265 472.044 228.707C472.317 227.149 472.454 225.222 472.454 222.926ZM481.991 222.926C481.991 218.197 482.784 214.507 484.369 211.856C485.982 209.177 488.743 207.838 492.651 207.838C496.56 207.838 499.307 209.177 500.892 211.856C502.505 214.507 503.311 218.197 503.311 222.926C503.311 227.709 502.505 231.454 500.892 234.16C499.307 236.839 496.56 238.178 492.651 238.178C488.743 238.178 485.982 236.839 484.369 234.16C482.784 231.454 481.991 227.709 481.991 222.926ZM498.719 222.926C498.719 220.712 498.569 218.84 498.268 217.309C497.995 215.778 497.421 214.535 496.546 213.578C495.672 212.594 494.373 212.102 492.651 212.102C490.929 212.102 489.631 212.594 488.756 213.578C487.882 214.535 487.294 215.778 486.993 217.309C486.72 218.84 486.583 220.712 486.583 222.926C486.583 225.222 486.72 227.149 486.993 228.707C487.267 230.265 487.841 231.522 488.715 232.479C489.617 233.436 490.929 233.914 492.651 233.914C494.373 233.914 495.672 233.436 496.546 232.479C497.448 231.522 498.036 230.265 498.309 228.707C498.583 227.149 498.719 225.222 498.719 222.926ZM508.257 222.926C508.257 218.197 509.05 214.507 510.635 211.856C512.248 209.177 515.008 207.838 518.917 207.838C522.826 207.838 525.573 209.177 527.158 211.856C528.771 214.507 529.577 218.197 529.577 222.926C529.577 227.709 528.771 231.454 527.158 234.16C525.573 236.839 522.826 238.178 518.917 238.178C515.008 238.178 512.248 236.839 510.635 234.16C509.05 231.454 508.257 227.709 508.257 222.926ZM524.985 222.926C524.985 220.712 524.835 218.84 524.534 217.309C524.261 215.778 523.687 214.535 522.812 213.578C521.937 212.594 520.639 212.102 518.917 212.102C517.195 212.102 515.897 212.594 515.022 213.578C514.147 214.535 513.56 215.778 513.259 217.309C512.986 218.84 512.849 220.712 512.849 222.926C512.849 225.222 512.986 227.149 513.259 228.707C513.532 230.265 514.106 231.522 514.981 232.479C515.883 233.436 517.195 233.914 518.917 233.914C520.639 233.914 521.937 233.436 522.812 232.479C523.714 231.522 524.302 230.265 524.575 228.707C524.848 227.149 524.985 225.222 524.985 222.926ZM561.911 220.712C561.911 226.917 560.708 231.495 558.303 234.447C555.925 237.399 552.084 238.875 546.782 238.875C544.486 238.875 541.821 238.533 538.787 237.85V228.379L532.678 229.773V226.452L538.787 225.058V221.573L532.514 223.008V219.81L538.787 218.375V209.519H543.584V217.268L550.308 215.71V218.99L543.584 220.507V223.992L550.103 222.516V225.796L543.584 227.272V234.201C544.486 234.392 545.552 234.488 546.782 234.488C550.499 234.488 553.15 233.326 554.736 231.003C556.321 228.68 557.114 225.249 557.114 220.712H561.911Z" fill="white"/>
<g clip-path="url(#clip0_2034_2889)">
<path d="M492.405 0.15L480.165 20.87L467.595 0H413.945L453.345 65.38L453.145 65.71L503.395 71.23L546.055 0.15H492.405Z" fill="#0C7B93"/>
<path d="M502.425 0.15L480.165 34.2L457.575 0H421.965L461.355 65.38L469.175 65.71H496.775L536.035 0.15H502.425Z" fill="#FF7A2D"/>
<path d="M508.435 0.15L480.165 44.22L449.565 0H429.975L471.375 65.38L469.175 65.71H488.755L528.015 0.15H508.435Z" fill="#FFE15C"/>
<path d="M480.315 58.47C452.525 58.47 429.925 81.08 429.925 108.86C429.925 136.64 452.535 159.26 480.315 159.26C508.095 159.26 530.715 136.65 530.715 108.86C530.715 81.07 508.105 58.47 480.315 58.47Z" fill="#FFD000"/>
<path d="M480.315 148.27C458.585 148.27 440.915 130.59 440.915 108.86C440.915 87.13 458.595 69.46 480.315 69.46C502.035 69.46 519.725 87.14 519.725 108.86C519.725 130.58 502.045 148.27 480.315 148.27Z" fill="#FFC900"/>
<path d="M447.705 130.96C454.795 141.4 466.765 148.28 480.315 148.28C502.045 148.28 519.725 130.6 519.725 108.87C519.725 99.33 516.315 90.58 510.655 83.75L447.715 130.96H447.705Z" fill="#FFE15C"/>
<path d="M480.315 152.68C456.165 152.68 436.505 133.03 436.505 108.87C436.505 84.7101 456.155 65.0601 480.315 65.0601C504.475 65.0601 524.125 84.7101 524.125 108.87C524.125 133.03 504.475 152.68 480.315 152.68ZM480.315 73.8701C461.015 73.8701 445.315 89.5701 445.315 108.87C445.315 128.17 461.015 143.87 480.315 143.87C499.615 143.87 515.315 128.17 515.315 108.87C515.315 89.5701 499.615 73.8701 480.315 73.8701Z" fill="#FF7A2D"/>
<path d="M474.665 97.7451V93.4811H483.193V123.37H478.478V97.7451H474.665Z" fill="black"/>
</g>
<g clip-path="url(#clip1_2034_2889)">
<rect width="320" height="300" transform="translate(640 180)" fill="#142850"/>
<path d="M749.46 402.926C749.46 398.197 750.253 394.507 751.838 391.856C753.451 389.177 756.211 387.838 760.12 387.838C764.029 387.838 766.776 389.177 768.361 391.856C769.974 394.507 770.78 398.197 770.78 402.926C770.78 407.709 769.974 411.454 768.361 414.16C766.776 416.839 764.029 418.178 760.12 418.178C756.211 418.178 753.451 416.839 751.838 414.16C750.253 411.454 749.46 407.709 749.46 402.926ZM766.188 402.926C766.188 400.712 766.038 398.84 765.737 397.309C765.464 395.778 764.89 394.535 764.015 393.578C763.14 392.594 761.842 392.102 760.12 392.102C758.398 392.102 757.1 392.594 756.225 393.578C755.35 394.535 754.763 395.778 754.462 397.309C754.189 398.84 754.052 400.712 754.052 402.926C754.052 405.222 754.189 407.149 754.462 408.707C754.735 410.265 755.309 411.522 756.184 412.479C757.086 413.436 758.398 413.914 760.12 413.914C761.842 413.914 763.14 413.436 764.015 412.479C764.917 411.522 765.505 410.265 765.778 408.707C766.051 407.149 766.188 405.222 766.188 402.926ZM775.726 402.926C775.726 398.197 776.518 394.507 778.104 391.856C779.716 389.177 782.477 387.838 786.386 387.838C790.294 387.838 793.041 389.177 794.627 391.856C796.239 394.507 797.046 398.197 797.046 402.926C797.046 407.709 796.239 411.454 794.627 414.16C793.041 416.839 790.294 418.178 786.386 418.178C782.477 418.178 779.716 416.839 778.104 414.16C776.518 411.454 775.726 407.709 775.726 402.926ZM792.454 402.926C792.454 400.712 792.303 398.84 792.003 397.309C791.729 395.778 791.155 394.535 790.281 393.578C789.406 392.594 788.108 392.102 786.386 392.102C784.664 392.102 783.365 392.594 782.491 393.578C781.616 394.535 781.028 395.778 780.728 397.309C780.454 398.84 780.318 400.712 780.318 402.926C780.318 405.222 780.454 407.149 780.728 408.707C781.001 410.265 781.575 411.522 782.45 412.479C783.352 413.436 784.664 413.914 786.386 413.914C788.108 413.914 789.406 413.436 790.281 412.479C791.183 411.522 791.77 410.265 792.044 408.707C792.317 407.149 792.454 405.222 792.454 402.926ZM801.991 402.926C801.991 398.197 802.784 394.507 804.369 391.856C805.982 389.177 808.743 387.838 812.651 387.838C816.56 387.838 819.307 389.177 820.892 391.856C822.505 394.507 823.311 398.197 823.311 402.926C823.311 407.709 822.505 411.454 820.892 414.16C819.307 416.839 816.56 418.178 812.651 418.178C808.743 418.178 805.982 416.839 804.369 414.16C802.784 411.454 801.991 407.709 801.991 402.926ZM818.719 402.926C818.719 400.712 818.569 398.84 818.268 397.309C817.995 395.778 817.421 394.535 816.546 393.578C815.672 392.594 814.373 392.102 812.651 392.102C810.929 392.102 809.631 392.594 808.756 393.578C807.882 394.535 807.294 395.778 806.993 397.309C806.72 398.84 806.583 400.712 806.583 402.926C806.583 405.222 806.72 407.149 806.993 408.707C807.267 410.265 807.841 411.522 808.715 412.479C809.617 413.436 810.929 413.914 812.651 413.914C814.373 413.914 815.672 413.436 816.546 412.479C817.448 411.522 818.036 410.265 818.309 408.707C818.583 407.149 818.719 405.222 818.719 402.926ZM828.257 402.926C828.257 398.197 829.05 394.507 830.635 391.856C832.248 389.177 835.008 387.838 838.917 387.838C842.826 387.838 845.573 389.177 847.158 391.856C848.771 394.507 849.577 398.197 849.577 402.926C849.577 407.709 848.771 411.454 847.158 414.16C845.573 416.839 842.826 418.178 838.917 418.178C835.008 418.178 832.248 416.839 830.635 414.16C829.05 411.454 828.257 407.709 828.257 402.926ZM844.985 402.926C844.985 400.712 844.835 398.84 844.534 397.309C844.261 395.778 843.687 394.535 842.812 393.578C841.937 392.594 840.639 392.102 838.917 392.102C837.195 392.102 835.897 392.594 835.022 393.578C834.147 394.535 833.56 395.778 833.259 397.309C832.986 398.84 832.849 400.712 832.849 402.926C832.849 405.222 832.986 407.149 833.259 408.707C833.532 410.265 834.106 411.522 834.981 412.479C835.883 413.436 837.195 413.914 838.917 413.914C840.639 413.914 841.937 413.436 842.812 412.479C843.714 411.522 844.302 410.265 844.575 408.707C844.848 407.149 844.985 405.222 844.985 402.926ZM881.911 400.712C881.911 406.917 880.708 411.495 878.303 414.447C875.925 417.399 872.084 418.875 866.782 418.875C864.486 418.875 861.821 418.533 858.787 417.85V408.379L852.678 409.773V406.452L858.787 405.058V401.573L852.514 403.008V399.81L858.787 398.375V389.519H863.584V397.268L870.308 395.71V398.99L863.584 400.507V403.992L870.103 402.516V405.796L863.584 407.272V414.201C864.486 414.392 865.552 414.488 866.782 414.488C870.499 414.488 873.15 413.326 874.736 411.003C876.321 408.68 877.114 405.249 877.114 400.712H881.911Z" fill="white"/>
<g clip-path="url(#clip2_2034_2889)">
<path d="M812.405 170.89L800.165 191.61L787.595 170.74H733.945L773.345 236.12L773.145 236.45L823.395 241.97L866.055 170.89H812.405Z" fill="#0C7B93"/>
<path d="M822.425 170.89L800.165 204.94L777.575 170.74H741.965L781.355 236.12L789.175 236.45H816.775L856.035 170.89H822.425Z" fill="#5C2C10"/>
<path d="M828.435 170.89L800.165 214.96L769.565 170.74H749.975L791.375 236.12L789.175 236.45H808.755L848.015 170.89H828.435Z" fill="#FCA374"/>
<path d="M800.315 229.21C772.525 229.21 749.925 251.82 749.925 279.6C749.925 307.38 772.535 330 800.315 330C828.095 330 850.715 307.39 850.715 279.6C850.715 251.81 828.105 229.21 800.315 229.21Z" fill="#915120"/>
<path d="M800.315 319.01C778.585 319.01 760.915 301.33 760.915 279.6C760.915 257.87 778.595 240.2 800.315 240.2C822.035 240.2 839.725 257.88 839.725 279.6C839.725 301.32 822.045 319.01 800.315 319.01Z" fill="#915120"/>
<path d="M767.705 301.7C774.795 312.14 786.765 319.02 800.315 319.02C822.045 319.02 839.725 301.34 839.725 279.61C839.725 270.07 836.315 261.32 830.655 254.49L767.715 301.7H767.705Z" fill="#FCA374"/>
<path d="M800.315 323.42C776.165 323.42 756.505 303.77 756.505 279.61C756.505 255.45 776.155 235.8 800.315 235.8C824.475 235.8 844.125 255.45 844.125 279.61C844.125 303.77 824.475 323.42 800.315 323.42ZM800.315 244.61C781.015 244.61 765.315 260.31 765.315 279.61C765.315 298.91 781.015 314.61 800.315 314.61C819.615 314.61 835.315 298.91 835.315 279.61C835.315 260.31 819.615 244.61 800.315 244.61Z" fill="#5C2C10"/>
</g>
<path d="M790.198 271.601C790.362 269.059 791.332 267.077 793.109 265.656C794.913 264.235 797.209 263.524 799.997 263.524C801.91 263.524 803.564 263.866 804.958 264.549C806.352 265.232 807.404 266.162 808.115 267.337C808.826 268.512 809.181 269.838 809.181 271.314C809.181 273.009 808.73 274.457 807.828 275.66C806.926 276.863 805.846 277.669 804.589 278.079V278.243C806.202 278.735 807.459 279.637 808.361 280.949C809.263 282.234 809.714 283.887 809.714 285.91C809.714 287.523 809.345 288.958 808.607 290.215C807.869 291.472 806.776 292.47 805.327 293.208C803.878 293.919 802.143 294.274 800.12 294.274C797.168 294.274 794.735 293.522 792.822 292.019C790.936 290.488 789.925 288.302 789.788 285.459H794.298C794.407 286.908 794.968 288.097 795.979 289.026C796.99 289.928 798.357 290.379 800.079 290.379C801.746 290.379 803.031 289.928 803.933 289.026C804.835 288.097 805.286 286.908 805.286 285.459C805.286 283.546 804.671 282.193 803.441 281.4C802.238 280.58 800.38 280.17 797.865 280.17H796.799V276.316H797.906C800.12 276.289 801.801 275.92 802.949 275.209C804.124 274.498 804.712 273.378 804.712 271.847C804.712 270.535 804.288 269.496 803.441 268.731C802.594 267.938 801.391 267.542 799.833 267.542C798.302 267.542 797.113 267.938 796.266 268.731C795.419 269.496 794.913 270.453 794.749 271.601H790.198Z" fill="black"/>
</g>
<rect width="320" height="380" transform="translate(0 100)" fill="#142850" fill-opacity="0.8"/>
<path d="M109.46 322.926C109.46 318.197 110.253 314.507 111.838 311.856C113.451 309.177 116.211 307.838 120.12 307.838C124.029 307.838 126.776 309.177 128.361 311.856C129.974 314.507 130.78 318.197 130.78 322.926C130.78 327.709 129.974 331.454 128.361 334.16C126.776 336.839 124.029 338.178 120.12 338.178C116.211 338.178 113.451 336.839 111.838 334.16C110.253 331.454 109.46 327.709 109.46 322.926ZM126.188 322.926C126.188 320.712 126.038 318.84 125.737 317.309C125.464 315.778 124.89 314.535 124.015 313.578C123.14 312.594 121.842 312.102 120.12 312.102C118.398 312.102 117.1 312.594 116.225 313.578C115.35 314.535 114.763 315.778 114.462 317.309C114.189 318.84 114.052 320.712 114.052 322.926C114.052 325.222 114.189 327.149 114.462 328.707C114.735 330.265 115.309 331.522 116.184 332.479C117.086 333.436 118.398 333.914 120.12 333.914C121.842 333.914 123.14 333.436 124.015 332.479C124.917 331.522 125.505 330.265 125.778 328.707C126.051 327.149 126.188 325.222 126.188 322.926ZM135.726 322.926C135.726 318.197 136.518 314.507 138.104 311.856C139.716 309.177 142.477 307.838 146.386 307.838C150.294 307.838 153.041 309.177 154.627 311.856C156.239 314.507 157.046 318.197 157.046 322.926C157.046 327.709 156.239 331.454 154.627 334.16C153.041 336.839 150.294 338.178 146.386 338.178C142.477 338.178 139.716 336.839 138.104 334.16C136.518 331.454 135.726 327.709 135.726 322.926ZM152.454 322.926C152.454 320.712 152.303 318.84 152.003 317.309C151.729 315.778 151.155 314.535 150.281 313.578C149.406 312.594 148.108 312.102 146.386 312.102C144.664 312.102 143.365 312.594 142.491 313.578C141.616 314.535 141.028 315.778 140.728 317.309C140.454 318.84 140.318 320.712 140.318 322.926C140.318 325.222 140.454 327.149 140.728 328.707C141.001 330.265 141.575 331.522 142.45 332.479C143.352 333.436 144.664 333.914 146.386 333.914C148.108 333.914 149.406 333.436 150.281 332.479C151.183 331.522 151.77 330.265 152.044 328.707C152.317 327.149 152.454 325.222 152.454 322.926ZM161.991 322.926C161.991 318.197 162.784 314.507 164.369 311.856C165.982 309.177 168.743 307.838 172.651 307.838C176.56 307.838 179.307 309.177 180.892 311.856C182.505 314.507 183.311 318.197 183.311 322.926C183.311 327.709 182.505 331.454 180.892 334.16C179.307 336.839 176.56 338.178 172.651 338.178C168.743 338.178 165.982 336.839 164.369 334.16C162.784 331.454 161.991 327.709 161.991 322.926ZM178.719 322.926C178.719 320.712 178.569 318.84 178.268 317.309C177.995 315.778 177.421 314.535 176.546 313.578C175.672 312.594 174.373 312.102 172.651 312.102C170.929 312.102 169.631 312.594 168.756 313.578C167.882 314.535 167.294 315.778 166.993 317.309C166.72 318.84 166.583 320.712 166.583 322.926C166.583 325.222 166.72 327.149 166.993 328.707C167.267 330.265 167.841 331.522 168.715 332.479C169.617 333.436 170.929 333.914 172.651 333.914C174.373 333.914 175.672 333.436 176.546 332.479C177.448 331.522 178.036 330.265 178.309 328.707C178.583 327.149 178.719 325.222 178.719 322.926ZM188.257 322.926C188.257 318.197 189.05 314.507 190.635 311.856C192.248 309.177 195.008 307.838 198.917 307.838C202.826 307.838 205.573 309.177 207.158 311.856C208.771 314.507 209.577 318.197 209.577 322.926C209.577 327.709 208.771 331.454 207.158 334.16C205.573 336.839 202.826 338.178 198.917 338.178C195.008 338.178 192.248 336.839 190.635 334.16C189.05 331.454 188.257 327.709 188.257 322.926ZM204.985 322.926C204.985 320.712 204.835 318.84 204.534 317.309C204.261 315.778 203.687 314.535 202.812 313.578C201.937 312.594 200.639 312.102 198.917 312.102C197.195 312.102 195.897 312.594 195.022 313.578C194.147 314.535 193.56 315.778 193.259 317.309C192.986 318.84 192.849 320.712 192.849 322.926C192.849 325.222 192.986 327.149 193.259 328.707C193.532 330.265 194.106 331.522 194.981 332.479C195.883 333.436 197.195 333.914 198.917 333.914C200.639 333.914 201.937 333.436 202.812 332.479C203.714 331.522 204.302 330.265 204.575 328.707C204.848 327.149 204.985 325.222 204.985 322.926ZM241.911 320.712C241.911 326.917 240.708 331.495 238.303 334.447C235.925 337.399 232.084 338.875 226.782 338.875C224.486 338.875 221.821 338.533 218.787 337.85V328.379L212.678 329.773V326.452L218.787 325.058V321.573L212.514 323.008V319.81L218.787 318.375V309.519H223.584V317.268L230.308 315.71V318.99L223.584 320.507V323.992L230.103 322.516V325.796L223.584 327.272V334.201C224.486 334.392 225.552 334.488 226.782 334.488C230.499 334.488 233.15 333.326 234.736 331.003C236.321 328.68 237.114 325.249 237.114 320.712H241.911Z" fill="white"/>
<g clip-path="url(#clip3_2034_2889)">
<path d="M172.405 100.15L160.165 120.87L147.595 100H93.945L133.345 165.38L133.145 165.71L183.395 171.23L226.055 100.15H172.405Z" fill="#0C7B93"/>
<path d="M182.425 100.15L160.165 134.2L137.575 100H101.965L141.355 165.38L149.175 165.71H176.775L216.035 100.15H182.425Z" fill="#4E4E4E"/>
<path d="M188.435 100.15L160.165 144.22L129.565 100H109.975L151.375 165.38L149.175 165.71H168.755L208.015 100.15H188.435Z" fill="#BEBEBE"/>
<path d="M160.315 158.47C132.525 158.47 109.925 181.08 109.925 208.86C109.925 236.64 132.535 259.26 160.315 259.26C188.095 259.26 210.715 236.65 210.715 208.86C210.715 181.07 188.105 158.47 160.315 158.47Z" fill="#7E7E7E" fill-opacity="0.933333"/>
<path d="M160.315 248.27C138.585 248.27 120.915 230.59 120.915 208.86C120.915 187.13 138.595 169.46 160.315 169.46C182.035 169.46 199.725 187.14 199.725 208.86C199.725 230.58 182.045 248.27 160.315 248.27Z" fill="#7E7E7E"/>
<path d="M127.705 230.96C134.795 241.4 146.765 248.28 160.315 248.28C182.045 248.28 199.725 230.6 199.725 208.87C199.725 199.33 196.315 190.58 190.655 183.75L127.715 230.96H127.705Z" fill="#BEBEBE"/>
<path d="M160.315 252.68C136.165 252.68 116.505 233.03 116.505 208.87C116.505 184.71 136.155 165.06 160.315 165.06C184.475 165.06 204.125 184.71 204.125 208.87C204.125 233.03 184.475 252.68 160.315 252.68ZM160.315 173.87C141.015 173.87 125.315 189.57 125.315 208.87C125.315 228.17 141.015 243.87 160.315 243.87C179.615 243.87 195.315 228.17 195.315 208.87C195.315 189.57 179.615 173.87 160.315 173.87Z" fill="#4E4E4E"/>
<path d="M153.363 217.015C155.987 214.746 158.051 212.888 159.554 211.439C161.085 209.963 162.356 208.432 163.367 206.847C164.378 205.262 164.884 203.676 164.884 202.091C164.884 200.451 164.488 199.166 163.695 198.237C162.93 197.308 161.713 196.843 160.046 196.843C158.433 196.843 157.176 197.362 156.274 198.401C155.399 199.412 154.935 200.779 154.88 202.501H150.37C150.452 199.385 151.381 197.007 153.158 195.367C154.962 193.7 157.244 192.866 160.005 192.866C162.984 192.866 165.308 193.686 166.975 195.326C168.67 196.966 169.517 199.153 169.517 201.886C169.517 203.854 169.011 205.754 168 207.585C167.016 209.389 165.827 211.015 164.433 212.464C163.066 213.885 161.317 215.539 159.185 217.425L157.34 219.065H170.337V222.96H150.411V219.557L153.363 217.015Z" fill="black"/>
</g>
<defs>
<clipPath id="clip0_2034_2889">
<rect width="132.11" height="159.26" fill="white" transform="translate(413.945)"/>
</clipPath>
<clipPath id="clip1_2034_2889">
<rect width="320" height="300" fill="white" transform="translate(640 180)"/>
</clipPath>
<clipPath id="clip2_2034_2889">
<rect width="132.11" height="159.26" fill="white" transform="translate(733.945 170.74)"/>
</clipPath>
<clipPath id="clip3_2034_2889">
<rect width="132.11" height="159.26" fill="white" transform="translate(93.945 100)"/>
</clipPath>
</defs>
</svg>
